HIERARCHY
ROOT Hips
{
	OFFSET 0 0 0
	CHANNELS 6 Xposition Yposition Zposition Yrotation Xrotation Zrotation
	JOINT Spine
	{
		OFFSET -0 7.96124 -2.53765
		CHANNELS 3 Yrotation Xrotation Zrotation
		JOINT Spine1
		{
			OFFSET -0 8.14037 0
			CHANNELS 3 Yrotation Xrotation Zrotation
			JOINT Spine2
			{
				OFFSET -0 8.14037 0
				CHANNELS 3 Yrotation Xrotation Zrotation
				JOINT Spine3
				{
					OFFSET -0 8.14037 0
					CHANNELS 3 Yrotation Xrotation Zrotation
					JOINT Neck
					{
						OFFSET -0 14.0192 3.53765
						CHANNELS 3 Yrotation Xrotation Zrotation
						JOINT Head
						{
							OFFSET -0 9.95155 0
							CHANNELS 3 Yrotation Xrotation Zrotation
							End Site
							{
								OFFSET 0 15 0
							}
						}
					}
					JOINT LeftShoulder
					{
						OFFSET 1.65859 2.44779 3.31718
						CHANNELS 3 Yrotation Xrotation Zrotation
						JOINT LeftArm
						{
							OFFSET 18.8215 0 0
							CHANNELS 3 Yrotation Xrotation Zrotation
							JOINT LeftForeArm
							{
								OFFSET 24.369 0 0
								CHANNELS 3 Yrotation Xrotation Zrotation
								JOINT LeftHand
								{
									OFFSET 20.693 0 0
									CHANNELS 3 Yrotation Xrotation Zrotation
									JOINT LeftHandThumb1
									{
										OFFSET 4.77279 0 2.93781
										CHANNELS 3 Yrotation Xrotation Zrotation
										JOINT LeftHandThumb2
										{
											OFFSET 3 0 1
											CHANNELS 3 Yrotation Xrotation Zrotation
											JOINT LeftHandThumb3
											{
												OFFSET 2.1 0 0
												CHANNELS 3 Yrotation Xrotation Zrotation
												JOINT LeftHandThumb4
												{
													OFFSET 1.305 0 0
													CHANNELS 3 Yrotation Xrotation Zrotation
													End Site
													{
														OFFSET -0 0 0
													}
												}
											}
										}
									}
									JOINT LeftHandIndex1
									{
										OFFSET 8.85787 0 3.70426
										CHANNELS 3 Yrotation Xrotation Zrotation
										JOINT LeftHandIndex2
										{
											OFFSET 3.5 0 0
											CHANNELS 3 Yrotation Xrotation Zrotation
											JOINT LeftHandIndex3
											{
												OFFSET 2.45 0 0
												CHANNELS 3 Yrotation Xrotation Zrotation
												JOINT LeftHandIndex4
												{
													OFFSET 1.5225 0 0
													CHANNELS 3 Yrotation Xrotation Zrotation
													End Site
													{
														OFFSET -0 0 0
													}
												}
											}
										}
									}
									JOINT LeftHandMiddle1
									{
										OFFSET 8.9513 0 1.15177
										CHANNELS 3 Yrotation Xrotation Zrotation
										JOINT LeftHandMiddle2
										{
											OFFSET 4.6 0 0
											CHANNELS 3 Yrotation Xrotation Zrotation
											JOINT LeftHandMiddle3
											{
												OFFSET 3.22 0 0
												CHANNELS 3 Yrotation Xrotation Zrotation
												JOINT LeftHandMiddle4
												{
													OFFSET 2.001 0 0
													CHANNELS 3 Yrotation Xrotation Zrotation
													End Site
													{
														OFFSET -0 0 0
													}
												}
											}
										}
									}
									JOINT LeftHandRing1
									{
										OFFSET 8.74474 0 -1.40072
										CHANNELS 3 Yrotation Xrotation Zrotation
										JOINT LeftHandRing2
										{
											OFFSET 3.75 0 0
											CHANNELS 3 Yrotation Xrotation Zrotation
											JOINT LeftHandRing3
											{
												OFFSET 2.625 0 0
												CHANNELS 3 Yrotation Xrotation Zrotation
												JOINT LeftHandRing4
												{
													OFFSET 1.63125 0 0
													CHANNELS 3 Yrotation Xrotation Zrotation
													End Site
													{
														OFFSET -0 0 0
													}
												}
											}
										}
									}
									JOINT LeftHandPinky1
									{
										OFFSET 8.23817 0 -3.95321
										CHANNELS 3 Yrotation Xrotation Zrotation
										JOINT LeftHandPinky2
										{
											OFFSET 2.875 0 0
											CHANNELS 3 Yrotation Xrotation Zrotation
											JOINT LeftHandPinky3
											{
												OFFSET 2.0125 0 0
												CHANNELS 3 Yrotation Xrotation Zrotation
												JOINT LeftHandPinky4
												{
													OFFSET 1.25062 0 0
													CHANNELS 3 Yrotation Xrotation Zrotation
													End Site
													{
														OFFSET -0 0 0
													}
												}
											}
										}
									}
								}
							}
						}
					}
					JOINT RightShoulder
					{
						OFFSET -1.65859 2.44779 3.31718
						CHANNELS 3 Yrotation Xrotation Zrotation
						JOINT RightArm
						{
							OFFSET -18.8215 0 0
							CHANNELS 3 Yrotation Xrotation Zrotation
							JOINT RightForeArm
							{
								OFFSET -24.369 0 0
								CHANNELS 3 Yrotation Xrotation Zrotation
								JOINT RightHand
								{
									OFFSET -20.693 0 0
									CHANNELS 3 Yrotation Xrotation Zrotation
									JOINT RightHandThumb1
									{
										OFFSET -4.49526 0 1.86793
										CHANNELS 3 Yrotation Xrotation Zrotation
										JOINT RightHandThumb2
										{
											OFFSET -3 0 1
											CHANNELS 3 Yrotation Xrotation Zrotation
											JOINT RightHandThumb3
											{
												OFFSET -2.1 0 0
												CHANNELS 3 Yrotation Xrotation Zrotation
												JOINT RightHandThumb4
												{
													OFFSET -1.305 0 0
													CHANNELS 3 Yrotation Xrotation Zrotation
													End Site
													{
														OFFSET -0 0 0
													}
												}
											}
										}
									}
									JOINT RightHandIndex1
									{
										OFFSET -9.23757 0 2.80764
										CHANNELS 3 Yrotation Xrotation Zrotation
										JOINT RightHandIndex2
										{
											OFFSET -3.5 0 0
											CHANNELS 3 Yrotation Xrotation Zrotation
											JOINT RightHandIndex3
											{
												OFFSET -2.45 0 0
												CHANNELS 3 Yrotation Xrotation Zrotation
												JOINT RightHandIndex4
												{
													OFFSET -1.5225 0 0
													CHANNELS 3 Yrotation Xrotation Zrotation
													End Site
													{
														OFFSET -0 0 0
													}
												}
											}
										}
									}
									JOINT RightHandMiddle1
									{
										OFFSET -8.70766 0 0.787911
										CHANNELS 3 Yrotation Xrotation Zrotation
										JOINT RightHandMiddle2
										{
											OFFSET -4.6 0 0
											CHANNELS 3 Yrotation Xrotation Zrotation
											JOINT RightHandMiddle3
											{
												OFFSET -3.22 0 0
												CHANNELS 3 Yrotation Xrotation Zrotation
												JOINT RightHandMiddle4
												{
													OFFSET -2.001 0 0
													CHANNELS 3 Yrotation Xrotation Zrotation
													End Site
													{
														OFFSET -0 0 0
													}
												}
											}
										}
									}
									JOINT RightHandRing1
									{
										OFFSET -7.87775 0 -1.23182
										CHANNELS 3 Yrotation Xrotation Zrotation
										JOINT RightHandRing2
										{
											OFFSET -3.75 0 0
											CHANNELS 3 Yrotation Xrotation Zrotation
											JOINT RightHandRing3
											{
												OFFSET -2.625 0 0
												CHANNELS 3 Yrotation Xrotation Zrotation
												JOINT RightHandRing4
												{
													OFFSET -1.63125 0 0
													CHANNELS 3 Yrotation Xrotation Zrotation
													End Site
													{
														OFFSET -0 0 0
													}
												}
											}
										}
									}
									JOINT RightHandPinky1
									{
										OFFSET -6.74784 0 -3.25155
										CHANNELS 3 Yrotation Xrotation Zrotation
										JOINT RightHandPinky2
										{
											OFFSET -2.875 0 0
											CHANNELS 3 Yrotation Xrotation Zrotation
											JOINT RightHandPinky3
											{
												OFFSET -2.0125 0 0
												CHANNELS 3 Yrotation Xrotation Zrotation
												JOINT RightHandPinky4
												{
													OFFSET -1.25062 0 0
													CHANNELS 3 Yrotation Xrotation Zrotation
													End Site
													{
														OFFSET -0 0 0
													}
												}
											}
										}
									}
								}
							}
						}
					}
				}
			}
		}
	}
	JOINT LeftUpLeg
	{
		OFFSET 9.95155 -3.31718 3
		CHANNELS 3 Yrotation Xrotation Zrotation
		JOINT LeftLeg
		{
			OFFSET -0 -43.2932 2.32203
			CHANNELS 3 Yrotation Xrotation Zrotation
			JOINT LeftFoot
			{
				OFFSET -0 -34.5003 -2.32203
				CHANNELS 3 Yrotation Xrotation Zrotation
				JOINT LeftToeBase
				{
					OFFSET -0 -8.48975 8.93072
					CHANNELS 3 Yrotation Xrotation Zrotation
					End Site
					{
						OFFSET 0 0 5
					}
				}
			}
		}
	}
	JOINT RightUpLeg
	{
		OFFSET -9.95155 -3.31718 3
		CHANNELS 3 Yrotation Xrotation Zrotation
		JOINT RightLeg
		{
			OFFSET -0 -43.2932 2.32203
			CHANNELS 3 Yrotation Xrotation Zrotation
			JOINT RightFoot
			{
				OFFSET -0 -34.5003 -2.32203
				CHANNELS 3 Yrotation Xrotation Zrotation
				JOINT RightToeBase
				{
					OFFSET -0 -8.48975 8.93072
					CHANNELS 3 Yrotation Xrotation Zrotation
					End Site
					{
						OFFSET 0 0 5
					}
				}
			}
		}
	}
}
MOTION
Frames: 4
Frame Time: 0.0047619
102.080688 90.593671 -31.130905 -37.474221 4.579732 4.281232 0.752222 -0.620478 -0.217896 0.547745 -1.195010 -0.061091 0.133213 -1.444943 0.151141 -0.014100 -1.697145 -0.016126 4.052185 10.029823 0.887941 1.775852 -8.346495 -0.988018 1.870216 -10.814345 25.067841 -35.829554 -17.891969 31.872835 -35.438388 -3.534003 17.045418 48.404442 12.915945 100.251784 -180.000000 54.599548 -180.000000 19.962276 55.410087 13.150358 0.000000 5.228080 0.000000 -25.576669 -7.688727 0.495588 -29.459317 -8.794753 0.866235 -39.058513 25.941897 -6.830927 -0.007587 -0.012080 12.296993 -0.007587 -0.012080 12.296993 -0.003907 -0.010725 9.837576 -0.001027 -0.005611 4.918804 -0.000009 -0.000020 12.499914 -0.000009 -0.000020 12.499914 -0.000011 -0.000014 9.999934 -0.000000 -0.000008 4.999964 -0.007860 -0.012588 1.268572 -0.007860 -0.012588 1.268572 -0.006097 -0.010185 1.014855 -0.002967 -0.005138 0.507437 0.004310 0.006992 -0.622730 0.004310 0.006992 -0.622730 5.504731 -16.160322 -30.915571 32.563982 -11.460766 -37.824240 21.256047 2.323932 -15.008624 -32.765265 16.327223 -49.697493 0.003506 0.005557 -0.498190 0.001774 0.002767 -0.249100 -122.865871 -0.320413 -179.411521 4.385651 1.354019 0.254407 5.044529 1.555341 0.301493 -45.833556 -3.386516 3.528854 -0.000003 -0.000005 -12.500007 -0.000003 -0.000005 -12.500007 -0.000006 0.000001 -10.000005 -0.000000 -0.000004 -4.999993 -0.000003 -0.000005 -12.500007 -0.000003 -0.000005 -12.500007 -0.000006 0.000001 -10.000005 -0.000000 -0.000004 -4.999993 -0.001097 -0.002393 -8.438719 -0.001097 -0.002393 -8.438719 -0.001159 -0.001752 -6.750961 -0.000673 -0.000800 -3.375485 0.001901 0.004290 -3.157236 0.001901 0.004290 -3.157236 5.057923 -7.618725 -10.114433 0.000000 10.792405 0.000000 13.103749 12.807592 0.709038 0.000000 -22.488494 0.000000 1.834505 7.295062 5.285624 -180.000000 54.599548 -180.000000 19.962276 55.410087 13.150358 0.000000 5.228080 0.000000
101.955835 90.553729 -31.124567 -36.277350 4.602949 4.348851 0.730593 -0.605778 -0.280473 0.543460 -1.161887 -0.089261 0.075177 -1.345235 0.158457 -0.129735 -1.790047 -0.063130 3.820752 9.621583 0.941931 1.672950 -7.947482 -1.039910 1.875714 -10.757559 25.000335 -35.377822 -17.768937 31.567847 -35.456117 -3.898268 17.126729 48.910709 13.093610 99.655915 -180.000000 54.599548 -180.000000 19.962276 55.410087 13.150358 0.000000 5.228080 0.000000 -25.545614 -7.660643 0.455824 -29.421730 -8.764177 0.820082 -42.154513 21.440581 -7.838525 -0.002164 -0.003409 12.452365 -0.002164 -0.003409 12.452365 -0.001118 -0.003025 9.961888 -0.000290 -0.001590 4.980946 -0.000006 -0.000002 12.499981 -0.000006 -0.000002 12.499981 -0.000001 -0.000004 9.999986 -0.000001 -0.000002 4.999993 -0.002270 -0.003587 1.440620 -0.002270 -0.003587 1.440620 -0.001754 -0.002906 1.152499 -0.000852 -0.001467 0.576247 0.001268 0.002053 -0.732184 0.001268 0.002053 -0.732184 5.372681 -16.202651 -30.825752 32.139901 -11.426434 -37.584667 21.304304 1.995970 -14.989100 -32.993253 16.928462 -50.359123 0.001041 0.001622 -0.585764 0.000525 0.000809 -0.292888 -122.867127 -0.320400 -179.411529 4.406061 1.341874 0.260502 5.068012 1.541361 0.308485 -46.386360 -3.074782 3.826470 0.000005 -0.000002 -12.500010 0.000005 -0.000002 -12.500010 -0.000013 -0.000002 -9.999996 0.000011 0.000001 -5.000005 0.000005 -0.000002 -12.500010 0.000005 -0.000002 -12.500010 -0.000013 -0.000002 -9.999996 0.000011 0.000001 -5.000005 -0.000142 -0.000329 -8.913099 -0.000142 -0.000329 -8.913099 -0.000157 -0.000244 -7.130485 -0.000089 -0.000108 -3.565239 0.000503 0.001120 -3.384757 0.000503 0.001120 -3.384757 4.675376 -7.852078 -10.155028 0.000000 11.120617 0.000000 12.474126 12.717361 0.894092 0.000000 -22.481915 0.000000 1.584145 7.063323 5.330221 -180.000000 54.599548 -180.000000 19.962276 55.410087 13.150358 0.000000 5.228080 0.000000
101.840601 90.519720 -31.115628 -35.102251 4.620134 4.390928 0.787563 -0.570738 -0.246203 0.599136 -1.127151 -0.093538 -0.082283 -1.408853 0.038327 -0.245255 -1.736496 -0.067984 3.548917 9.518780 0.939932 1.556466 -7.959793 -1.027252 1.807413 -10.686710 24.967058 -34.924015 -17.778606 31.162961 -35.469429 -3.968403 17.236983 48.291642 11.987073 99.473564 -180.000000 54.599548 -180.000000 19.962276 55.410087 13.150358 0.000000 5.228080 0.000000 -25.545614 -7.660643 0.455824 -29.421730 -8.764177 0.820082 -42.154513 21.440581 -7.838525 -0.002164 -0.003409 12.452365 -0.002164 -0.003409 12.452365 -0.001118 -0.003025 9.961888 -0.000290 -0.001590 4.980946 -0.000006 -0.000002 12.499981 -0.000006 -0.000002 12.499981 -0.000001 -0.000004 9.999986 -0.000001 -0.000002 4.999993 -0.002270 -0.003587 1.440620 -0.002270 -0.003587 1.440620 -0.001754 -0.002906 1.152499 -0.000852 -0.001467 0.576247 0.001268 0.002053 -0.732184 0.001268 0.002053 -0.732184 5.181632 -16.238705 -30.778731 31.752846 -11.350473 -37.304268 20.852102 1.862718 -14.826964 -32.664712 17.209233 -51.027472 0.001041 0.001622 -0.585764 0.000525 0.000809 -0.292888 -122.867127 -0.320400 -179.411529 4.406061 1.341874 0.260502 5.068012 1.541361 0.308485 -46.386360 -3.074782 3.826470 0.000005 -0.000002 -12.500010 0.000005 -0.000002 -12.500010 -0.000013 -0.000002 -9.999996 0.000011 0.000001 -5.000005 0.000005 -0.000002 -12.500010 0.000005 -0.000002 -12.500010 -0.000013 -0.000002 -9.999996 0.000011 0.000001 -5.000005 -0.000142 -0.000329 -8.913099 -0.000142 -0.000329 -8.913099 -0.000157 -0.000244 -7.130485 -0.000089 -0.000108 -3.565239 0.000503 0.001120 -3.384757 0.000503 0.001120 -3.384757 4.385794 -8.068303 -10.177170 0.000000 11.438928 0.000000 11.774599 12.665221 1.129002 0.000000 -22.529388 0.000000 1.624501 6.888338 5.364488 -180.000000 54.599548 -180.000000 19.962276 55.410087 13.150358 0.000000 5.228080 0.000000
101.710199 90.485901 -31.111588 -33.998042 4.595621 4.450145 0.777996 -0.539178 -0.277458 0.592259 -1.084504 -0.129302 -0.069685 -1.373153 -0.004581 -0.242687 -1.723313 -0.113826 3.191172 9.394892 1.081329 1.406573 -7.969133 -1.113719 1.875062 -10.437577 24.936885 -34.769429 -17.917552 30.898734 -35.450136 -3.865561 17.325702 48.076189 11.026890 99.130862 -180.000000 54.599548 -180.000000 19.962276 55.410087 13.150358 0.000000 5.228080 0.000000 -25.538269 -7.654262 0.446349 -29.412750 -8.757232 0.809173 -42.863578 20.381449 -8.030087 -0.000529 -0.000834 12.488801 -0.000529 -0.000834 12.488801 -0.000275 -0.000737 9.991056 -0.000074 -0.000389 4.995528 -0.000002 -0.000000 12.499993 -0.000002 -0.000000 12.499993 0.000001 -0.000003 9.999991 -0.000001 0.000001 4.999999 -0.000325 -0.000503 1.058630 -0.000325 -0.000503 1.058630 -0.000255 -0.000411 0.846908 -0.000123 -0.000209 0.423467 -0.000058 -0.000114 -0.061679 -0.000058 -0.000114 -0.061679 4.894058 -16.330132 -30.687264 31.418799 -11.293101 -36.963903 21.010949 1.695910 -14.859271 -35.570653 15.382012 -50.451269 -0.000046 -0.000093 -0.049345 -0.000025 -0.000047 -0.024670 -122.868383 -0.320387 -179.411538 4.524064 1.416157 0.375043 5.204126 1.625943 0.440870 -47.256111 -3.156420 4.041317 0.000006 0.000005 -12.499999 0.000006 0.000005 -12.499999 -0.000000 -0.000005 -10.000005 -0.000005 -0.000001 -4.999993 0.000006 0.000005 -12.499999 0.000006 0.000005 -12.499999 -0.000000 -0.000005 -10.000005 -0.000005 -0.000001 -4.999993 0.000197 0.001787 -9.111882 0.000197 0.001787 -9.111882 0.000382 0.001384 -7.289512 0.000280 0.000665 -3.644753 0.000639 0.004393 -3.824824 0.000639 0.004393 -3.824824 4.101501 -8.214348 -10.188946 0.000000 11.734219 0.000000 11.110516 12.577581 1.270947 0.000000 -22.477244 0.000000 1.416165 6.708280 5.368431 -180.000000 54.599548 -180.000000 19.962276 55.410087 13.150358 0.000000 5.228080 0.000000
